# xmcd
#
# Track frame offsets:
# 150
# 18007
# 29714
# 46979
# 78478
# 98252
# 115992
# 117202
# 142347
# 163369
# 183047
# 197652
# 220162
# 248311
# 275824
# 286304
# 296198
#
# Disc length: 4149 seconds
#
# Revision: 0
# Processed by: cddbd v1.5.2PL0 Copyright (c) Steve Scherf et al.
# Submitted via: Axialis_AX_CDPlayer 2.6
#
DISCID=f8103311
DTITLE=David Olney w/ Jack Irwin and Sergio Webb - Live At Norm's River Roadho
DTITLE=use \nVolume 1 (corrected)
DYEAR=1900
DGENRE=
TTITLE0=Intro/Whistle Blow
TTITLE1=Upside Down
TTITLE2=Wait Here For The Cops
TTITLE3=Sweet Poison
TTITLE4=Panama City
TTITLE5=Postcard from Mexico
TTITLE6=Intro of Band
TTITLE7=Titanic
TTITLE8=Oh Yeah
TTITLE9=One Tough Town
TTITLE10=Ukelele Waltz
TTITLE11=Who's The Dummy Now?
TTITLE12=Sundet On Sunset Boulevard
TTITLE13=Snake Song
TTITLE14=Kubla Khan
TTITLE15=Lee's Highway
TTITLE16=The Highway's Coming
EXTD=Deadbeat Records Se. # 101
EXTT0=
EXTT1=
EXTT2=
EXTT3=
EXTT4=
EXTT5=
EXTT6=
EXTT7=
EXTT8=
EXTT9=
EXTT10=
EXTT11=
EXTT12=
EXTT13=
EXTT14=
EXTT15=
EXTT16=
PLAYORDER=
